{"title":"Olympus Has Fallen 2013-BRRip-XviD PT","uid":8642415,"size":935890022,"categoryP":"video","categoryS":"movies","magnet":"?xt=urn:btih:930a01d0cb215fbdaad7afa8cbf2a0aca20d6107&amp;dn=Olympus+Has+Fallen+2013-BRRip-XviD+PT&amp;tr=udp%3A%2F%2Ftracker.openbittorrent.com%3A80&amp;tr=udp%3A%2F%2Fopen.demonii.com%3A1337&amp;tr=udp%3A%2F%2Ftracker.coppersurfer.tk%3A6969&amp;tr=udp%3A%2F%2Fexodus.desync.com%3A6969","seeders":1,"leechers":0,"uploader":"DrSeeder","files":-1,"time":1372900970,"description":"Format                           : AVI\nFormat/Info                      : Audio Video Interleave\nFormat profile                   : OpenDML\nFormat settings                  : rec\nFile size                        : 893 MiB\nDuration                         : 1h 59mn\nOverall bit rate                 : 1 047 Kbps\nWriting application              : AVI-Mux GUI 1.17.8.3, Feb 16 201019:42:50\n\nVideo\nID                               : 0\nFormat                           : MPEG-4 Visual\nFormat profile                   : Advanced Simple@L5\nFormat settings, BVOP            : 2\nFormat settings, QPel            : No\nFormat settings, GMC             : No warppoints\nFormat settings, Matrix          : Default (H.263)\nCodec ID                         : XVID\nCodec ID/Hint                    : XviD\nDuration                         : 1h 59mn\nBit rate                         : 916 Kbps\nWidth                            : 640 pixels\nHeight                           : 272 pixels\nDisplay aspect ratio             : 2.35:1\nFrame rate                       : 24.000 fps\nColor space                      : YUV\nChroma subsampling               : 4:2:0\nBit depth                        : 8 bits\nScan type                        : Progressive\nCompression mode                 : Lossy\nBits/(Pixel*Frame)               : 0.219\nStream size                      : 780 MiB (87%)\nWriting library                  : XviD 1.2.1 (UTC 2008-12-04)\n\nAudio\nID                               : 1\nFormat                           : MPEG Audio\nFormat version                   : Version 1\nFormat profile                   : Layer 3\nMode                             : Joint stereo\nMode extension                   : MS Stereo\nCodec ID                         : 55\nCodec ID/Hint                    : MP3\nDuration                         : 1h 59mn\nBit rate mode                    : Constant\nBit rate                         : 128 Kbps\nChannel(s)                       : 2 channels\nSampling rate                    : 48.0 KHz\nCompression mode                 : Lossy\nStream size                      : 109 MiB (12%)\nAlignment                        : Aligned on interleaves\nInterleave, duration             : 781 ms (18.75 video frames)\nInterleave, preload duration     : 216 ms\nTitle                            : aTLas\nWriting library                  : LAME3.99r\nEncoding settings                : -m j -V 4 -q 2 -lowpass 17 -b 128\n","torrent":{"xt":"urn:btih:930a01d0cb215fbdaad7afa8cbf2a0aca20d6107","amp;dn":"Olympus+Has+Fallen+2013-BRRip-XviD+PT","amp;tr":["udp%3A%2F%2Ftracker.openbittorrent.com%3A80","udp%3A%2F%2Fopen.demonii.com%3A1337","udp%3A%2F%2Ftracker.coppersurfer.tk%3A6969","udp%3A%2F%2Fexodus.desync.com%3A6969"],"infoHash":"930a01d0cb215fbdaad7afa8cbf2a0aca20d6107","infoHashBuffer":{"type":"Buffer","data":[147,10,1,208,203,33,95,189,170,215,175,168,203,242,160,172,162,13,97,7]},"announce":[],"urlList":[]}}